<?xml version="1.0" encoding="utf-8"?>
<!-- Generator: Adobe Illustrator 16.2.1, SVG Export Plug-In . SVG Version: 6.00 Build 0)  -->
<!DOCTYPE svg PUBLIC "-//W3C//DTD SVG 1.1//EN" "http://www.w3.org/Graphics/SVG/1.1/DTD/svg11.dtd">
<svg version="1.1" id="Ebene_1" xmlns="http://www.w3.org/2000/svg" xmlns:xlink="http://www.w3.org/1999/xlink" x="0px" y="0px"
	 width="216px" height="56px" viewBox="0 0 216 56" enable-background="new 0 0 216 56" xml:space="preserve">
<g>
	<path fill="#30D0F0" d="M71.915,0.003l19.911,27.268l20.188-27.268h4.18L93.894,31.01V56h-3.854V31.01L67.741,0.003H71.915z"/>
	<path fill="#30D0F0" d="M47.005,50.004C42.154,53.705,35.877,56,29.037,56C13.062,56,0.106,43.535,0.106,28.159
		c0-15.698,12.956-28.077,28.931-28.158c6.84,0,13.117,2.367,17.968,6.073L44.62,9.233c-4.296-3.315-9.698-5.37-15.583-5.37
		c-13.902,0-25.038,10.808-25.038,24.296c0,13.167,11.136,23.974,25.038,23.974c5.885,0,11.287-1.891,15.423-5.367L47.005,50.004z"
		/>
	<path fill="#30D0F0" d="M55.536,56V0.047h3.53V56H55.536z"/>
	<path fill="#30D0F0" d="M189.733,31.01L171.677,5.883V56h-4.238V0.003h4.174l19.91,27.268l20.195-27.268h4.176V56h-4.166V5.751
		L193.597,31.01H189.733z"/>
	<path fill="#30D0F0" d="M136.542,0.003L158.991,56h-4l-10.039-24.99h-20.004L114.862,56h-4.008l22.443-55.997H136.542z
		 M143.7,27.263l-8.775-22.931l-8.82,22.931H143.7z"/>
</g>
</svg>
